<svg width="25" height="24" viewBox="0 0 25 24" fill="none" xmlns="http://www.w3.org/2000/svg">
<path d="M5.00004 21.4038V12.1442L3.13273 13.5769L2.23083 12.3808L5.00001 10.2539V7.38464H6.50001V9.10389L12.5 4.52889L22.7692 12.3808L21.8673 13.5615L20 12.1442V21.4038H5.00004ZM6.50001 19.9038H11.3077V15.5192H13.6923V19.9038H18.5V11.0038L12.5 6.42884L6.50001 11.0038V19.9038ZM5.00004 6.28849C5.00004 5.57054 5.24202 4.95837 5.72599 4.45197C6.20997 3.94557 6.83978 3.69237 7.61541 3.69237C7.97566 3.69237 8.25162 3.58692 8.44328 3.37602C8.63495 3.16512 8.73078 2.90517 8.73078 2.59619H10.2308C10.2308 3.31414 9.98878 3.92632 9.50481 4.43272C9.02084 4.93912 8.39104 5.19232 7.61541 5.19232C7.25514 5.19232 6.97918 5.29777 6.78751 5.50867C6.59584 5.71957 6.50001 5.97951 6.50001 6.28849H5.00004Z" fill="#A78D78"/>
</svg>
