<svg width="25" height="24" viewBox="0 0 25 24" fill="none" xmlns="http://www.w3.org/2000/svg">
<path d="M4.80773 19.5C4.3026 19.5 3.87503 19.325 3.52503 18.975C3.17503 18.625 3.00003 18.1974 3.00003 17.6923V6.30773C3.00003 5.8026 3.17503 5.37503 3.52503 5.02503C3.87503 4.67503 4.3026 4.50003 4.80773 4.50003H20.1923C20.6974 4.50003 21.125 4.67503 21.475 5.02503C21.825 5.37503 22 5.8026 22 6.30773V17.6923C22 18.1974 21.825 18.625 21.475 18.975C21.125 19.325 20.6974 19.5 20.1923 19.5H4.80773ZM12.5 12.5577L4.50001 7.44228V17.6923C4.50001 17.782 4.52886 17.8558 4.58656 17.9135C4.64426 17.9712 4.71798 18 4.80773 18H20.1923C20.282 18 20.3558 17.9712 20.4135 17.9135C20.4712 17.8558 20.5 17.782 20.5 17.6923V7.44228L12.5 12.5577ZM12.5 11L20.3462 6.00001H4.65386L12.5 11ZM4.50001 7.44228V6.00001V17.6923C4.50001 17.782 4.52886 17.8558 4.58656 17.9135C4.64426 17.9712 4.71798 18 4.80773 18H4.50001V7.44228Z" fill="#A78D78"/>
</svg>
